HIERARCHY
ROOT Hips
{
    OFFSET 0.000000 0.000000 0.000000
    CHANNELS 6 Xposition Yposition Zposition Zrotation Xrotation Yrotation
        JOINT Chest
        {
            OFFSET -0.000000 31.966684 -0.000000
            CHANNELS 3 Zrotation Xrotation Yrotation
            JOINT Neck
            {
                OFFSET -0.000000 23.973995 0.000000
                CHANNELS 3 Zrotation Xrotation Yrotation
                JOINT Head
                {
                    OFFSET -0.000000 10.633333 0.000000
                    CHANNELS 3 Zrotation Xrotation Yrotation
                    End Site
                    {
                        OFFSET -0.000000 16.433334 0.000000
                    }
                }
            }
            JOINT LeftCollar
            {
                OFFSET -0.000000 23.973995 0.000000
                CHANNELS 3 Zrotation Xrotation Yrotation
                JOINT LeftShoulder
                {
                    OFFSET 19.333332 -0.000000 0.000000
                    CHANNELS 3 Zrotation Xrotation Yrotation
                    JOINT LeftElbow
                    {
                        OFFSET 20.067463 0.000000 0.000000
                        CHANNELS 3 Zrotation Xrotation Yrotation
                        JOINT LeftWrist
                        {
                            OFFSET 23.490957 0.000000 0.000000
                            CHANNELS 3 Zrotation Xrotation Yrotation
                            End Site
                            {
                                OFFSET 0.000000 -14.500000 0.000000
                            }
                        }
                    }
                }
            }
            JOINT RightCollar
            {
                OFFSET -0.000000 23.973995 0.000000
                CHANNELS 3 Zrotation Xrotation Yrotation
                JOINT RightShoulder
                {
                    OFFSET -19.333332 0.000000 0.000000
                    CHANNELS 3 Zrotation Xrotation Yrotation
                    JOINT RightElbow
                    {
                        OFFSET -20.067463 0.000000 0.000000
                        CHANNELS 3 Zrotation Xrotation Yrotation
                        JOINT RightWrist
                        {
                            OFFSET -23.490957 0.000000 0.000000
                            CHANNELS 3 Zrotation Xrotation Yrotation
                            End Site
                            {
                                OFFSET -0.000000 -14.500000 0.000000
                            }
                        }
                    }
                }
            }
        }
    JOINT LeftHip
    {
        OFFSET 11.599999 0.000000 0.000000
        CHANNELS 3 Zrotation Xrotation Yrotation
        JOINT LeftKnee
        {
            OFFSET -0.000000 -35.131119 0.000000
            CHANNELS 3 Zrotation Xrotation Yrotation
            JOINT LeftAnkle
            {
                OFFSET -0.000000 -37.839104 0.000000
                CHANNELS 3 Zrotation Xrotation Yrotation
                End Site
                {
                    OFFSET -0.000000 -4.833333 16.433334
                }
            }
        }
    }
    JOINT RightHip
    {
        OFFSET -11.599999 0.000000 0.000000
        CHANNELS 3 Zrotation Xrotation Yrotation
        JOINT RightKnee
        {
            OFFSET -0.000000 -35.131119 0.000000
            CHANNELS 3 Zrotation Xrotation Yrotation
            JOINT RightAnkle
            {
                OFFSET -0.000000 -37.839104 0.000000
                CHANNELS 3 Zrotation Xrotation Yrotation
                End Site
                {
                    OFFSET -0.000000 -4.833333 16.433334
                }
            }
        }
    }
}
MOTION
Frames:    10
Frame Time:    0.010000
42.873581    82.643547    -52.882618    9.191939    12.705585    -62.535870    -13.251770    32.904877    2.613919    -1.135375    -27.460266    8.257688    4.976499    -6.907516    9.521046    13.847499    -2.167595    -17.868731    -23.172440    -28.628138    -53.742214    16.829407    -1.120060    -7.560830    78.596619    -11.435854    113.645638    4.536083    0.359930    9.928126    56.963131    25.108625    43.890812    2.541551    0.107238    6.089726    -118.116028    -1.377589    39.144180    12.538749    -35.784859    6.236885    -12.595830    30.341618    -1.110629    6.054177    -9.167638    32.385014    -1.918863    -28.650061    -12.505384    6.872801    26.403315    -30.530605    12.570979    -6.004436    -13.785112    
42.996101    82.677818    -52.643402    9.176700    12.599841    -63.554375    -13.935400    30.538017    1.598935    -0.729938    -21.196249    9.637774    1.713480    -10.981940    9.979281    11.581080    -1.679639    -18.838974    -18.079712    -26.729452    -48.394703    17.966669    -1.325229    -8.508091    75.725945    -6.212629    110.861053    6.946816    0.922956    15.067577    56.648617    24.406981    39.518791    3.233314    0.146842    6.132388    -121.008965    -2.688071    39.404087    12.777345    -35.461838    6.517738    -12.803144    30.372541    -0.423306    6.138110    -9.328813    32.491627    -1.840669    -28.507183    -12.213346    6.723600    26.134968    -29.989649    10.897295    -5.229539    -13.105053    
43.053955    82.671402    -52.435867    9.004965    12.451762    -64.227585    -13.996108    30.914808    2.358351    -1.761836    -21.778866    9.382382    1.987079    -11.049869    9.917745    11.853223    -1.811154    -17.718765    -19.716511    -27.196352    -50.449337    17.717817    -1.361614    -9.092536    76.247559    -4.894325    105.960281    6.477117    0.832718    14.902048    56.702438    24.265194    39.512913    3.478996    0.213441    6.318486    -123.347198    -4.020173    40.248394    12.914408    -34.981987    6.768472    -12.888731    30.263426    -0.094650    6.338044    -9.207251    32.486599    -1.743491    -28.340225    -12.250103    6.360348    26.253775    -28.735558    11.569818    -5.392330    -13.286115    
43.113182    82.689011    -52.275936    8.913261    12.328959    -64.809204    -14.059805    30.670359    2.447208    -2.029403    -21.264576    9.340446    2.095635    -11.572559    9.935804    11.770145    -1.826222    -17.627756    -19.598637    -27.024279    -50.565357    17.918793    -1.458012    -9.564027    75.949623    -3.228359    103.471497    6.748807    0.869662    14.945404    56.493336    24.388685    38.998180    3.673891    0.215549    6.571150    -124.860443    -4.742354    40.725475    13.013118    -34.654659    7.001601    -12.963033    30.241880    0.203232    6.408793    -9.235363    32.506954    -1.696350    -28.201027    -12.153963    6.162892    26.220751    -28.042355    11.389304    -5.246407    -13.201380    
43.176968    82.711365    -52.095924    8.802834    12.178194    -65.441940    -14.141664    30.425688    2.617255    -2.321766    -20.709269    9.310792    2.227257    -12.113441    9.973764    11.684383    -1.828457    -17.468317    -19.604485    -26.801470    -50.790020    18.112782    -1.551824    -10.085359    75.824677    -1.663463    100.847717    7.002478    0.902130    15.045055    56.298431    24.480961    38.390469    3.937819    0.226479    6.761686    -126.301216    -5.461186    41.243896    13.099347    -34.277824    7.257684    -13.039752    30.216732    0.522879    6.467936    -9.270868    32.523235    -1.651101    -28.033474    -12.029391    5.943894    26.186110    -27.272751    11.162595    -5.092934    -13.156429    
43.243664    82.738136    -51.899971    8.679871    12.002572    -66.100792    -14.225194    30.196630    2.868428    -2.619977    -20.179409    9.279675    2.313205    -12.601702    10.002831    11.620040    -1.772450    -17.255178    -19.791409    -26.562639    -51.174454    18.265045    -1.652188    -10.656308    75.886612    -0.258512    98.136787    7.194295    0.982831    15.141379    56.114109    24.488808    37.778587    4.258140    0.236689    6.905503    -127.508629    -6.093326    41.747761    13.161387    -33.866543    7.510791    -13.120954    30.183592    0.866888    6.505630    -9.311028    32.532188    -1.610909    -27.842958    -11.871794    5.714006    26.150625    -26.461613    10.847646    -4.930186    -13.171354    
43.311646    82.768921    -51.692547    8.551866    11.806403    -66.760223    -14.300273    29.982019    3.192463    -2.898684    -19.682669    9.252739    2.338732    -13.013188    10.024022    11.528763    -1.744331    -17.004250    -20.065048    -26.212730    -51.628780    18.478657    -1.769063    -11.328461    76.074020    0.966524    95.569824    7.349821    0.984054    15.238708    55.957317    24.468731    37.062847    4.447832    0.288508    7.294307    -128.245560    -6.350454    42.133102    13.188787    -33.438267    7.733595    -13.208710    30.138683    1.236673    6.514822    -9.352234    32.532551    -1.578962    -27.634520    -11.680008    5.485088    26.115274    -25.652105    10.407685    -4.756266    -13.259064    
43.379021    82.803093    -51.477932    8.425515    11.594109    -67.395714    -14.356212    29.778378    3.574351    -3.133568    -19.219929    9.236578    2.286884    -13.333343    10.035681    11.405574    -1.665647    -16.735209    -20.453388    -25.772661    -52.176144    18.620001    -1.895189    -12.062514    76.398369    2.039654    93.062698    7.449024    0.982163    15.335972    55.876099    24.346292    36.298969    4.693045    0.292381    7.616215    -128.491364    -6.370925    42.347240    13.172746    -33.009464    7.903462    -13.302755    30.079857    1.627124    6.492816    -9.390096    32.525963    -1.558923    -27.410257    -11.458290    5.268945    26.081469    -24.895182    9.824315    -4.571399    -13.420849    
43.443745    82.839836    -51.259949    8.305868    11.369698    -67.986427    -14.384401    29.581320    3.995811    -3.304396    -18.785620    9.235586    2.147050    -13.559514    10.038345    11.193373    -1.623048    -16.468786    -20.812855    -25.145063    -52.707558    18.820438    -2.046742    -12.901390    76.762077    3.001420    90.845238    7.491426    1.014342    15.426649    55.836365    24.116547    35.547306    4.918729    0.351433    7.934736    -128.124054    -5.957087    42.221737    13.106407    -32.592869    8.006104    -13.399164    30.005791    2.027803    6.441772    -9.420213    32.515129    -1.554709    -27.169287    -11.216508    5.076178    26.051329    -24.244576    9.104634    -4.377824    -13.645494    
43.503677    82.878288    -51.041679    8.195682    11.136149    -68.516754    -14.378893    29.385662    4.438136    -3.397279    -18.366690    9.253639    1.917654    -13.702219    10.033757    10.889637    -1.534007    -16.219948    -21.164766    -24.357924    -53.253521    18.939400    -2.195201    -13.772808    77.177811    3.889157    88.805481    7.501602    1.058209    15.503685    55.804157    23.830256    34.819897    5.057649    0.343035    8.339498    -127.099831    -5.105890    41.756752    12.984608    -32.195477    8.035682    -13.491209    29.914064    2.426890    6.367892    -9.438196    32.502510    -1.570580    -26.907627    -10.970424    4.915695    26.028276    -23.747940    8.274999    -4.180110    -13.911579    
